<svg width="37" height="26" viewBox="0 0 37 26" fill="none" xmlns="http://www.w3.org/2000/svg">
<path fill-rule="evenodd" clip-rule="evenodd" d="M36.0522 12.9823C36.0584 13.5039 35.8351 14.0012 35.4432 14.3387L22.4538 25.5285C21.9408 25.9703 21.2217 26.0697 20.6109 25.783C20.0002 25.4963 19.6093 24.8759 19.6093 24.1933V19.5214L1.84835 19.5214C1.3904 19.5214 0.951174 19.3368 0.627357 19.0083C0.303539 18.6798 0.121643 18.2342 0.121643 17.7696V8.89356C0.121643 8.42897 0.303539 7.98342 0.627356 7.65497C0.951173 7.32643 1.3904 7.14183 1.84835 7.14183L19.6093 7.14183V2.35238C19.6093 1.67745 19.9916 1.06246 20.592 0.77159C21.1924 0.480724 21.9041 0.565706 22.4215 0.989991L35.411 11.6413C35.8109 11.9692 36.0459 12.4607 36.0522 12.9823Z" fill="white"/>
</svg>
