<svg width="37" height="26" viewBox="0 0 37 26" fill="none" xmlns="http://www.w3.org/2000/svg">
<path fill-rule="evenodd" clip-rule="evenodd" d="M0.947942 12.9823C0.941709 13.5039 1.16498 14.0012 1.55692 14.3387L14.5463 25.5285C15.0593 25.9703 15.7784 26.0697 16.3892 25.783C16.9999 25.4963 17.3908 24.8759 17.3908 24.1933V19.5214L35.1518 19.5214C35.6097 19.5214 36.0489 19.3368 36.3728 19.0083C36.6966 18.6798 36.8785 18.2342 36.8785 17.7696V8.89356C36.8785 8.42897 36.6966 7.98342 36.3728 7.65497C36.049 7.32643 35.6097 7.14183 35.1518 7.14183L17.3908 7.14183V2.35238C17.3908 1.67745 17.0085 1.06246 16.4081 0.77159C15.8077 0.480724 15.096 0.565706 14.5786 0.989991L1.58908 11.6413C1.18917 11.9692 0.954175 12.4607 0.947942 12.9823Z" fill="white"/>
</svg>
